<?xml version="1.0" encoding="UTF-8"?>
<svg id="Layer_1" xmlns="http://www.w3.org/2000/svg" xmlns:xlink="http://www.w3.org/1999/xlink" viewBox="0 0 589.36 139.33">
  <defs>
    <style>
      .cls-1 {
        fill: none;
      }

      .cls-2 {
        fill: url(#Nepojmenovaný_přechod_3-4);
      }

      .cls-3 {
        fill: url(#Nepojmenovaný_přechod_3-6);
      }

      .cls-4 {
        fill: url(#Nepojmenovaný_přechod_3-5);
      }

      .cls-5 {
        fill: url(#Nepojmenovaný_přechod_3-3);
      }

      .cls-6 {
        fill: url(#Nepojmenovaný_přechod_3-2);
      }

      .cls-7 {
        fill: url(#Nepojmenovaný_přechod_16);
      }

      .cls-8 {
        fill: url(#Nepojmenovaný_přechod_21);
      }

      .cls-9 {
        fill: url(#Nepojmenovaný_přechod_14);
      }

      .cls-10 {
        fill: url(#Nepojmenovaný_přechod_12);
      }

      .cls-11 {
        fill: url(#Nepojmenovaný_přechod_9);
      }

      .cls-12 {
        fill: url(#Nepojmenovaný_přechod_4);
      }

      .cls-13 {
        fill: url(#Nepojmenovaný_přechod_3);
      }

      .cls-14 {
        fill: url(#Nepojmenovaný_přechod_8);
      }

      .cls-15 {
        fill: #316db6;
      }

      .cls-16 {
        fill: #353b97;
      }
    </style>
    <linearGradient id="Nepojmenovaný_přechod_4" data-name="Nepojmenovaný přechod 4" x1="198.17" y1="58.92" x2="158.28" y2="97.92" gradientUnits="userSpaceOnUse">
      <stop offset="0" stop-color="#316db6"/>
      <stop offset=".94" stop-color="#00000d"/>
    </linearGradient>
    <linearGradient id="Nepojmenovaný_přechod_3" data-name="Nepojmenovaný přechod 3" x1="223.1" y1="41.3" x2="180.14" y2="83.3" gradientUnits="userSpaceOnUse">
      <stop offset="0" stop-color="#316db6"/>
      <stop offset="1" stop-color="#00000d"/>
    </linearGradient>
    <linearGradient id="Nepojmenovaný_přechod_3-2" data-name="Nepojmenovaný přechod 3" x1="327.1" y1="129.19" x2="261.64" y2="36.96" xlink:href="#Nepojmenovaný_přechod_3"/>
    <linearGradient id="Nepojmenovaný_přechod_3-3" data-name="Nepojmenovaný přechod 3" x1="235.38" y1="27.1" x2="273.17" y2="114.95" xlink:href="#Nepojmenovaný_přechod_3"/>
    <linearGradient id="Nepojmenovaný_přechod_8" data-name="Nepojmenovaný přechod 8" x1="393.34" y1="117.8" x2="393.34" y2="3.58" gradientUnits="userSpaceOnUse">
      <stop offset=".05" stop-color="#316db6"/>
      <stop offset="1" stop-color="#00000d"/>
    </linearGradient>
    <linearGradient id="Nepojmenovaný_přechod_14" data-name="Nepojmenovaný přechod 14" x1="395.1" y1="5.11" x2="335.05" y2="96.32" gradientUnits="userSpaceOnUse">
      <stop offset=".19" stop-color="#316db6"/>
      <stop offset="1" stop-color="#00000d"/>
    </linearGradient>
    <linearGradient id="Nepojmenovaný_přechod_12" data-name="Nepojmenovaný přechod 12" x1="518.86" y1="34.79" x2="440.51" y2="98.2" gradientUnits="userSpaceOnUse">
      <stop offset=".14" stop-color="#bcd9f2"/>
      <stop offset=".42" stop-color="#316db6"/>
      <stop offset=".95" stop-color="#00000d"/>
    </linearGradient>
    <linearGradient id="Nepojmenovaný_přechod_3-4" data-name="Nepojmenovaný přechod 3" x1="469.35" y1="45.94" x2="495.49" y2="81.31" xlink:href="#Nepojmenovaný_přechod_3"/>
    <linearGradient id="Nepojmenovaný_přechod_9" data-name="Nepojmenovaný přechod 9" x1="464.53" y1="72.77" x2="399.71" y2="27.02" gradientUnits="userSpaceOnUse">
      <stop offset="0" stop-color="#316db6"/>
      <stop offset="1" stop-color="#00000d"/>
    </linearGradient>
    <linearGradient id="Nepojmenovaný_přechod_3-5" data-name="Nepojmenovaný přechod 3" x1="1164.31" y1="384.16" x2="1115" y2="432.37" gradientTransform="translate(1673.99 461.79) rotate(-180)" xlink:href="#Nepojmenovaný_přechod_3"/>
    <linearGradient id="Nepojmenovaný_přechod_16" data-name="Nepojmenovaný přechod 16" x1="1136.5" y1="383.62" x2="1162.64" y2="418.99" gradientTransform="translate(1673.99 461.79) rotate(-180)" gradientUnits="userSpaceOnUse">
      <stop offset="0" stop-color="#316db6"/>
      <stop offset="1" stop-color="#00000d"/>
    </linearGradient>
    <linearGradient id="Nepojmenovaný_přechod_21" data-name="Nepojmenovaný přechod 21" x1="1148.89" y1="376.56" x2="1068.94" y2="450.32" gradientTransform="translate(1673.99 461.79) rotate(-180)" gradientUnits="userSpaceOnUse">
      <stop offset=".04" stop-color="#5c50a1"/>
      <stop offset=".06" stop-color="#5852a2"/>
      <stop offset=".25" stop-color="#3b65b0"/>
      <stop offset=".37" stop-color="#316db6"/>
      <stop offset=".88" stop-color="#00000d"/>
    </linearGradient>
    <linearGradient id="Nepojmenovaný_přechod_3-6" data-name="Nepojmenovaný přechod 3" x1="188.31" y1="32.55" x2="166.51" y2="53.87" xlink:href="#Nepojmenovaný_přechod_3"/>
  </defs>
  <path class="cls-15" d="M0,4.19h50.1c12.28,0,20.93,3.07,26.65,8.79,3.91,3.91,6.28,9.07,6.28,15.77v.28c0,11.3-6.42,18-15.07,21.77,11.86,3.91,19.4,10.6,19.4,23.86v.28c0,16.74-13.68,26.93-36.98,26.93H0V4.19ZM43.4,43.12c8.23,0,12.84-2.79,12.84-8.51v-.28c0-5.3-4.19-8.37-12.28-8.37h-17.58v17.16h17.03ZM47.31,80.1c8.23,0,12.98-3.21,12.98-8.93v-.28c0-5.3-4.18-8.79-13.25-8.79h-20.65v18h20.93Z"/>
  <path class="cls-15" d="M98.23,26.38h26.51v15.21c4.33-10.33,11.3-17.02,23.86-16.47v27.91h-2.23c-13.82,0-21.63,7.95-21.63,25.4v23.44h-26.51V26.38Z"/>
  <path class="cls-12" d="M176.23,78.43v.29c0,5.15,3.92,8.23,9.36,8.23,6.57,0,11.48-3.58,12.76-9.33l-.06,16.45c-5.17,5.7-12.3,9.48-22.21,9.48-14.36,0-25.38-8.23-25.38-23.31v-.26c0-15.64,11.86-23.72,29.56-23.72,6.98,0,13.84,1.4,18.14,2.91l-.03,11.77c-2.62-1.08-6.25-1.86-10-1.86-7.67,0-12.15,3.78-12.15,9.36Z"/>
  <path class="cls-13" d="M224.51,58.46v43.4h-26.22v-7.79l.06-16.45c.23-.96.35-2.01.35-3.08v-3.49c-.09-.03-.2-.09-.32-.12l.03-11.77v-1.25c0-1.28-.12-2.44-.41-3.52l.29.35s-.32-23.4-22.96-28.66c3.75-.52,7.82-.81,12.35-.81,13.52,0,22.73,3.2,28.75,9.22,5.7,5.58,8.08,13.4,8.08,23.98Z"/>
  <path class="cls-6" d="M312.82,52.47v86.86h-26.51V60.99c0-8.23-4.3-12.7-10.58-12.7s-11.16,4.48-11.16,12.7v-24.01c4.88-6.28,11.86-12.27,22.59-12.27,16.05,0,25.67,10.61,25.67,27.76Z"/>
  <rect class="cls-5" x="238.03" y="26.37" width="26.54" height="75.49"/>
  <path class="cls-14" d="M406.6,0v101.86h-26.51v-33.66c.09-.41.15-.81.2-1.22.15-.9.2-1.83.2-2.79v-.26c0-.87-.06-1.72-.17-2.53-.06-.47-.15-.93-.23-1.4V0h26.51Z"/>
  <path class="cls-9" d="M349.65,63.92v.26c0,2.94.58,5.61,1.66,7.94,2.56,5.67,7.82,9.24,13.84,9.24,7.33,0,13.43-5.29,14.94-13.17v23.63c-5.17,6.28-11.71,11.71-23.02,11.71-3.87,0-7.62-.7-11.1-2.03-12.73-4.85-22.24-18.11-22.24-37.03v-.29c0-24.56,15.35-39.48,33.2-39.48,11.45,0,18.14,5.15,23.17,10.87v24.42c-1.51-7.82-7.62-13.11-14.94-13.11-3.81,0-7.3,1.4-10,3.84-3.34,3.02-5.49,7.65-5.49,13.2Z"/>
  <path class="cls-16" d="M467.45,78.89c-1.89,1.16-3.95,1.95-6.19,2.35,1.72-.55,3.78-1.31,6.19-2.35Z"/>
  <path class="cls-10" d="M508.81,48.6l-12.56,26.77c-3.78,11.54-12.59,20.78-23.81,25.12-33.63-12.01-32.59-32.38-32.59-32.38,2.3,7.76,9.48,13.46,17.99,13.46,1.16,0,2.3-.12,3.4-.32,2.24-.41,4.3-1.19,6.19-2.35,7.38-3.23,17.85-9.19,30.58-20.23,3.43-2.97,7.03-6.31,10.78-10.06Z"/>
  <path class="cls-2" d="M476.6,62.81c0-5.67-2.53-10.76-6.54-14.21,0,0,2.12-20.35-16.02-25.99,1.25-.12,2.53-.17,3.81-.17,20.9,0,38.08,15.87,40.17,36.22-12.73,11.05-23.2,17.01-30.58,20.23,5.49-3.26,9.16-9.24,9.16-16.08Z"/>
  <path class="cls-11" d="M472.45,100.49c-4.53,1.77-9.45,2.73-14.59,2.73-22.3,0-40.38-18.08-40.38-40.41,0-20.99,16.05-38.25,36.54-40.2h.03c18.14,5.64,16.02,25.99,16.02,25.99-3.28-2.79-7.53-4.51-12.21-4.51-10.35,0-18.75,8.37-18.75,18.72,0,1.83.26,3.6.76,5.29,0,0-1.05,20.38,32.59,32.38Z"/>
  <path class="cls-16" d="M539.39,45.22c1.89-1.16,3.95-1.95,6.19-2.35-1.72.55-3.78,1.31-6.19,2.35Z"/>
  <path class="cls-4" d="M498.03,75.51l12.56-26.77c3.78-11.54,12.59-20.78,23.81-25.12,33.63,12.01,32.59,32.38,32.59,32.38-2.3-7.76-9.48-13.46-17.99-13.46-1.16,0-2.3.12-3.4.32-2.24.41-4.3,1.19-6.19,2.35-7.38,3.23-17.85,9.19-30.58,20.23-3.43,2.97-7.03,6.31-10.78,10.06Z"/>
  <path class="cls-7" d="M530.23,61.3c0,5.67,2.53,10.76,6.54,14.21,0,0-2.12,20.35,16.02,25.99-1.25.12-2.53.17-3.81.17-20.9,0-38.08-15.87-40.17-36.22,12.73-11.05,23.2-17.01,30.58-20.23-5.49,3.26-9.16,9.24-9.16,16.08Z"/>
  <path class="cls-8" d="M534.39,23.62c4.53-1.77,9.45-2.73,14.59-2.73,22.3,0,40.38,18.08,40.38,40.41,0,20.99-16.05,38.25-36.54,40.2h-.03c-18.14-5.64-16.02-25.99-16.02-25.99,3.28,2.79,7.53,4.51,12.21,4.51,10.35,0,18.75-8.37,18.75-18.72,0-1.83-.26-3.6-.76-5.29,0,0,1.05-20.38-32.59-32.38Z"/>
  <line class="cls-1" x1="198.38" y1="70.93" x2="198.35" y2="77.61"/>
  <path class="cls-3" d="M198.29,54.74l-.29-.35c-.73-3.2-2.59-5.58-5.64-7.03-2.33-1.13-5.32-1.72-9.01-1.72-7.97,0-14.1,1.54-20.78,4.19l-5.46-18.69c5.52-2.27,11.28-4.07,18.2-5.06h.03c22.64,5.26,22.96,28.66,22.96,28.66Z"/>
  <polyline class="cls-1" points="380.29 66.98 380.32 61.39 380.49 29.82"/>
</svg>